<svg id="Слой_1" data-name="Слой 1" xmlns="http://www.w3.org/2000/svg" xmlns:xlink="http://www.w3.org/1999/xlink" viewBox="0 0 953.9 906.16"><defs><style>.cls-1{fill:none;}.cls-2{fill:#ff4e00;}.cls-3{fill:#273a65;}.cls-4{fill:#8d03ff;}.cls-5{clip-path:url(#clip-path);}.cls-6{fill:#bcbec0;}.cls-7{fill:#d1d3d4;}.cls-11,.cls-8{fill:#ffbd00;}.cls-9{clip-path:url(#clip-path-2);}.cls-10{fill:#ecf0f1;}.cls-11{opacity:0.1;}.cls-12{fill:#fff;}</style><clipPath id="clip-path" transform="translate(-7000.81 -1436.36)"><rect class="cls-1" x="7055.64" y="1443.45" width="899.07" height="899.07"/></clipPath><clipPath id="clip-path-2" transform="translate(-7000.81 -1436.36)"><rect class="cls-2" x="7299.95" y="1968.01" width="323.59" height="285.23"/></clipPath></defs><title>gift-f</title><rect class="cls-3" x="54.83" y="7.1" width="899.07" height="899.07"/><polygon class="cls-4" points="694.43 569.6 713.08 441.42 764.35 457.74 694.43 569.6"/><polygon class="cls-4" points="706.09 595.24 841.26 618.54 806.3 662.82 706.09 595.24"/><g class="cls-5"><path class="cls-4" d="M7867.9,2200.95s-12.8,11-17.09,11.19l12.1,30.51c-0.51,0-1.07.05-1.68,0.05-10,0-35.7-7.05-159.78-145.07-27.52-30.61-54.7-43.89-83.09-40.62-33.87,3.92-64.42,31.25-84.08,53.48a311.64,311.64,0,0,0-36,49.86l-37.45-20.56c2.57-4.69,64.07-115,152.6-125.22,42.55-4.92,82.84,13.41,119.77,54.49" transform="translate(-7000.81 -1436.36)"/><rect class="cls-2" x="7526.89" y="2048.56" width="361.06" height="64.27" transform="translate(-447.49 -7255.13) rotate(66.58)"/><rect class="cls-4" x="7675.99" y="2049.23" width="63.44" height="64.27" transform="translate(-446.72 -7255) rotate(66.58)"/><polygon class="cls-6" points="342.22 531.65 342.22 513.2 299.14 531.65 342.22 531.65"/><rect class="cls-7" x="342.22" y="513.2" width="237.43" height="18.45"/><polygon class="cls-6" points="579.65 531.65 579.65 513.2 622.73 531.65 579.65 531.65"/><polygon class="cls-8" points="460.08 756.23 931.87 0 0 0 460.08 756.23"/><rect class="cls-2" x="299.14" y="531.65" width="323.59" height="285.23"/><g class="cls-9"><rect class="cls-10" x="6996.98" y="1861.16" width="713.33" height="20.37" transform="translate(-6170.22 4311.56) rotate(-45)"/><rect class="cls-10" x="6959.83" y="1824.01" width="713.33" height="20.37" transform="translate(-6154.83 4274.41) rotate(-45)"/><rect class="cls-10" x="6922.67" y="1786.86" width="713.33" height="20.37" transform="translate(-6139.44 4237.26) rotate(-45)"/></g><rect class="cls-4" x="429.94" y="531.65" width="63.44" height="285.23"/></g><polygon class="cls-8" points="282.35 726.99 282.08 747.69 301.69 754.33 281.92 760.47 281.67 781.17 269.72 764.26 249.96 770.42 262.34 753.83 250.38 736.94 269.98 743.59 282.35 726.99"/><polygon class="cls-11" points="301.69 754.33 282.08 747.69 282.35 726.99 269.72 764.26 281.67 781.17 281.92 760.47 301.69 754.33"/><polygon class="cls-8" points="726.95 498.57 736.3 509.05 749.15 503.39 742.07 515.52 751.43 526 737.71 523.01 730.64 535.15 729.23 521.17 715.51 518.2 728.37 512.55 726.95 498.57"/><polygon class="cls-11" points="749.15 503.39 736.3 509.05 726.95 498.57 737.71 523.01 751.43 526 742.07 515.52 749.15 503.39"/><polygon class="cls-8" points="330.38 685.15 335.73 692.84 344.69 690.12 339.03 697.59 344.38 705.27 335.54 702.19 329.88 709.66 330.07 700.3 321.22 697.23 330.19 694.51 330.38 685.15"/><polygon class="cls-11" points="344.69 690.12 335.73 692.84 330.38 685.15 335.54 702.19 344.38 705.27 339.03 697.59 344.69 690.12"/><polygon class="cls-8" points="609.14 599.3 599.89 600.78 598.45 610.03 594.18 601.7 584.93 603.18 591.54 596.55 587.27 588.21 595.62 592.45 602.23 585.81 600.78 595.07 609.14 599.3"/><polygon class="cls-11" points="598.45 610.03 599.89 600.78 609.14 599.3 591.54 596.55 584.93 603.18 594.18 601.7 598.45 610.03"/><polygon class="cls-8" points="599.7 623.68 613.63 640.59 634.01 632.55 622.23 651.03 636.18 667.92 614.97 662.43 603.21 680.92 601.87 659.05 580.66 653.58 601.05 645.55 599.7 623.68"/><polygon class="cls-11" points="634.01 632.55 613.63 640.59 599.7 623.68 614.97 662.43 636.18 667.92 622.23 651.03 634.01 632.55"/><path class="cls-12" d="M7164,1501.35l-14.37,0,0-8.2,37.62-.1,0,8.2-14.37,0,0.11,38.83-8.87,0Z" transform="translate(-7000.81 -1436.36)"/><path class="cls-12" d="M7227.28,1493l0,7.93-23.58.07,0,10.81,21.7-.06,0,7.93-21.7.06,0,12.43,23.78-.07,0,7.93-32.65.09-0.13-47Z" transform="translate(-7000.81 -1436.36)"/><path class="cls-12" d="M7236.63,1493l21.36-.06c10.62,0,17.62,5.39,17.64,15.27s-6.94,15.33-17.56,15.36l-12.49,0,0,16.39-8.87,0Zm21.15,22.65c6.18,0,9-3,9-7.41s-2.84-7.38-9-7.36l-12.22,0,0,14.78Z" transform="translate(-7000.81 -1436.36)"/><path class="cls-12" d="M7284.09,1492.82l21.36-.06c10.62,0,17.62,5.39,17.64,15.27s-6.94,15.33-17.56,15.36l-12.49,0,0,16.39-8.87,0Zm21.15,22.65c6.18,0,9-3,9-7.41s-2.84-7.38-9-7.36l-12.22,0,0,14.78Z" transform="translate(-7000.81 -1436.36)"/><path class="cls-12" d="M7331.54,1492.69l8.6,0,0.1,34.53c0.4-1,2-3.7,2-3.7l18.93-30.89,9,0,0.13,47-8.6,0-0.1-34.73c-0.4,1-2,3.7-2,3.7l-18.92,31.09-9,0Z" transform="translate(-7000.81 -1436.36)"/><path class="cls-12" d="M7392.18,1500.72l-14.37,0,0-8.2,37.62-.1,0,8.2-14.37,0,0.11,38.83-8.87,0Z" transform="translate(-7000.81 -1436.36)"/><path class="cls-12" d="M7443,1540.34c-13.84,0-24.21-10.34-24.25-24.39s10.28-24.48,24.11-24.52,24.21,10.35,24.25,24.39S7456.8,1540.31,7443,1540.34Zm15.12-24.49c0-10.14-6.7-16.24-15.23-16.21s-15.16,6.15-15.13,16.3,6.69,16.24,15.22,16.21S7458.1,1526,7458.07,1515.85Z" transform="translate(-7000.81 -1436.36)"/><path class="cls-12" d="M7475.77,1492.29l21.36-.06c10.62,0,17.62,5.39,17.64,15.27s-6.94,15.33-17.56,15.36l-12.49,0,0,16.39-8.87,0Zm21.15,22.65c6.18,0,9-3,9-7.41s-2.84-7.38-9-7.36l-12.22,0,0,14.78Z" transform="translate(-7000.81 -1436.36)"/><path class="cls-12" d="M7523.22,1492.16l8.6,0,0.1,34.53c0.4-1,2-3.7,2-3.7l18.93-30.89,9,0,0.13,47-8.6,0-0.1-34.73c-0.4,1-2,3.7-2,3.7l-18.92,31.09-9,0Z" transform="translate(-7000.81 -1436.36)"/><path class="cls-12" d="M7607.89,1491.92l0.13,47-8.87,0,0-17.74-8.06,0-10.7,17.77-9.74,0,11.43-18.84c-7.26-1.93-10.9-6.56-10.92-14.21,0-8.53,6.34-14,16.69-14Zm-8.84,7.82-11.22,0c-5.44,0-7.85,2.71-7.84,6.88s2.44,6.84,7.88,6.83l11.22,0Z" transform="translate(-7000.81 -1436.36)"/><path class="cls-12" d="M7153.25,1573.84l37.22-.1,0.13,47-8.87,0-0.11-38.83-19.48.05,0.11,38.83-8.87,0Z" transform="translate(-7000.81 -1436.36)"/><path class="cls-12" d="M7200.84,1573.7l21.36-.06c10.62,0,17.62,5.39,17.64,15.27s-6.94,15.34-17.56,15.37l-12.49,0,0,16.39-8.87,0Zm21.15,22.65c6.18,0,9-3,9-7.41s-2.84-7.38-9-7.36l-12.22,0,0,14.78Z" transform="translate(-7000.81 -1436.36)"/><path class="cls-12" d="M7257.42,1573.55l8.46,0,19.14,47-9.47,0-4.73-12.28-18.14.05L7248,1620.6l-9.47,0Zm10.35,26.78-4.33-11.27s-0.88-2.28-1.76-5.1c-0.87,2.82-1.74,5.11-1.74,5.11l-4.27,11.3Z" transform="translate(-7000.81 -1436.36)"/><path class="cls-12" d="M7325.79,1606.34c0,9.21-7.28,15-17.83,15-9.94,0-16-4.46-18.38-13l8.32-3.65c1,4.7,4.45,8.59,10,8.57,5.1,0,9-2.37,9-7.08,0-3.83-3.71-6-8.54-6h-5.17l0-7.79h5.17c4,0,6.84-2.37,6.83-6.13s-2.9-5.77-7.2-5.76c-5,0-7.72,2.57-8.44,6.27l-7.93-2.26c1.12-6.52,6.34-12,16.43-12.07,10.68,0,15.73,5.6,15.75,12.92a11.57,11.57,0,0,1-5.61,10A11.45,11.45,0,0,1,7325.79,1606.34Z" transform="translate(-7000.81 -1436.36)"/><path class="cls-12" d="M7331.41,1612.17h4c2.74-5.65,4-10.69,4.51-20l1-18.88,31.3-.09,0.11,38.83,6.52,0,0,16.66-8.26,0,0-8.46-31,.09,0,8.46-8.26,0Zm32.11-.09-0.09-30.9-14.24,0-0.58,10.75c-0.51,9.27-1.44,14.18-3.84,20.16Z" transform="translate(-7000.81 -1436.36)"/><path class="cls-12" d="M7395.54,1573.17l0.05,18.94,20.56-.06-0.05-18.94,8.87,0,0.13,47-8.87,0-0.06-19.88-20.56.06,0.06,19.88-8.87,0-0.13-47Z" transform="translate(-7000.81 -1436.36)"/><path class="cls-12" d="M7435.34,1573.06l8.6,0,0.1,34.53c0.4-1,2-3.7,2-3.7L7465,1573l9,0,0.13,47-8.6,0-0.1-34.73c-0.4,1-2,3.7-2,3.7l-18.92,31.09-9,0Z" transform="translate(-7000.81 -1436.36)"/><path class="cls-12" d="M7522.22,1619.84l-11,0-14.42-17c-1.15-1.27-2.29-2.75-3.51-4.09l0.06,21.16-8.87,0-0.13-47,8.87,0,0.05,19.15c1.14-1.55,2.47-3.17,3.68-4.51l12.79-14.68,11.42,0L7501.06,1595Z" transform="translate(-7000.81 -1436.36)"/><path class="cls-12" d="M7546.23,1572.75l8.46,0,19.14,47-9.47,0-4.73-12.28-18.14.05-4.67,12.31-9.47,0Zm10.35,26.78-4.33-11.27s-0.88-2.28-1.76-5.1c-0.87,2.82-1.74,5.11-1.74,5.11l-4.27,11.3Z" transform="translate(-7000.81 -1436.36)"/><path class="cls-3" d="M7380.49,1683.16c13.63,2.57,20.41,11.1,18.64,20.49-1.58,8.4-8.4,12.53-14.42,13.55,7.26,3.82,12.65,10,10.81,19.73-2.31,12.25-14.62,17.92-27.66,15.46l-25.59-4.82,13-69.16Zm-5.83,28.78c8,1.51,14.51-.44,16-8.15s-3.88-12-11.88-13.49l-16.5-3.11-4.07,21.64Zm-6.51,32.94c9.59,1.8,17.44-.81,19.12-9.7,1.71-9.09-4.68-14.28-14.27-16.08l-16.2-3-4.85,25.79Z" transform="translate(-7000.81 -1436.36)"/><path class="cls-3" d="M7421.29,1711.7l-1.67,8.9a20.76,20.76,0,0,1,19.72-6.93c13,2.45,20.91,15,18,30.2-2.83,15-14.65,24-28.19,21.5-7.61-1.43-13.28-6.08-15.64-12.56l-5.28,28.06-7.91-1.49,13-69.16Zm-5.21,24.39c-2,10.67,3.3,20,13.09,21.8s18.06-4.68,20.11-15.55-3.3-20-13.08-21.8S7418.09,1725.42,7416.08,1736.1Z" transform="translate(-7000.81 -1436.36)"/><path class="cls-3" d="M7486.13,1769c8.4,1.58,12.82-1.78,17.05-5.79l5.39,4.49c-5.59,6.32-13.05,10.13-24,8.06-13.44-2.53-22.3-15.25-19.44-30.46s15.84-23.82,29.58-21.24c14.42,2.71,21.6,14.6,18.91,28.93l-0.5,2.67-40.41-7.61C7471.3,1758.15,7476.25,1767.16,7486.13,1769Zm-12.23-27.37,32.41,6.1c1.26-9.48-4.92-15.76-12.92-17.27C7484.88,1728.89,7477,1733.85,7473.9,1741.65Z" transform="translate(-7000.81 -1436.36)"/><path class="cls-3" d="M7528.74,1731.93l11.47,2.16,7.74,43.09,22.88-37.33,11.36,2.14-9.22,49-7.7-1.45,7.23-38.43L7550,1786.66l-7.41-1.4-8-41.4-7.25,38.53-7.81-1.47Z" transform="translate(-7000.81 -1436.36)"/><path class="cls-3" d="M7630.25,1751l-9.22,49-7.81-1.47,3.57-19-9.48-1.78-15.53,16.72-8.59-1.62,16.31-17.6c-6.52-2.86-10.19-8.36-8.72-16.17,1.67-8.89,8.95-13.87,19-12Zm-9.06,5.15-12.74-2.4c-4.84-.91-9.13,1.25-10.17,6.78s2.17,9.11,7.41,10.09L7618,1773Z" transform="translate(-7000.81 -1436.36)"/><path class="cls-3" d="M7371,1829c-4.81,1.14-10.55,1.19-17.47-.11-14.62-2.75-23.11-13-20.31-28l3.81-20.25,8.29,1.56-3.74,19.86c-1.9,10.08,3,17.56,13.41,19.51,6.53,1.23,12.34,1.3,17.41-.1l6.21-33,8.3,1.56-13,69.16-8.3-1.56Z" transform="translate(-7000.81 -1436.36)"/><path class="cls-3" d="M7382,1880.59l1.47-7.81c3.26,2.25,4.94,3.08,7.22,3.51,2.76,0.52,4.94-.71,7-3.91l4.83-7.69-10.82-52.88,9,1.69,8.1,41.22,22.43-35.47,8.79,1.66-35.77,55.27c-4.07,6.39-8.48,8.63-14.8,7.44A18.39,18.39,0,0,1,7382,1880.59Z" transform="translate(-7000.81 -1436.36)"/><path class="cls-3" d="M7432.14,1862.91l4.64,0.87c3.58-4.34,5.67-9.47,7.91-18.67l5.52-22.29,35.27,6.64-7.9,42,7,1.32-3.48,18.47-7.32-1.38,2.16-11.46-37.84-7.12-2.16,11.46-7.31-1.38Zm37.45,7,6.58-35-20.55-3.87-3.84,15.54c-2.39,10-4.08,14.07-7.38,18.56Z" transform="translate(-7000.81 -1436.36)"/><path class="cls-3" d="M7514.47,1880c8.4,1.58,12.82-1.78,17.05-5.79l5.39,4.49c-5.59,6.32-13.05,10.13-24,8.06-13.44-2.53-22.3-15.25-19.44-30.46s15.84-23.82,29.58-21.24c14.42,2.71,21.6,14.6,18.91,28.93l-0.5,2.67L7501,1859.1C7499.64,1869.17,7504.59,1878.18,7514.47,1880Zm-12.23-27.37,32.41,6.1c1.26-9.48-4.92-15.76-12.92-17.27C7513.23,1839.91,7505.34,1844.87,7502.24,1852.68Z" transform="translate(-7000.81 -1436.36)"/><path class="cls-3" d="M7569.45,1897.45c-14.43-2.72-23.07-15.5-20.23-30.61s16.33-23.73,30-21.16c10.37,2,16.61,7.93,18.91,16.35l-7.14,2.64c-2.24-6.56-7-10.53-13-11.66-9.49-1.79-18.43,3.89-20.59,15.36-2.12,11.26,3.82,20,13.6,21.79,7.51,1.41,12.33-1.36,16.77-5.95L7593,1889C7587.37,1895.71,7579.42,1899.33,7569.45,1897.45Z" transform="translate(-7000.81 -1436.36)"/><path class="cls-3" d="M7604.43,1892.16l9.79,1.84-1.9,10.08-9.79-1.84Zm7.67-36.92,4.15-22,8.3,1.56-4.15,22-6.64,28.73-5.83-1.1Z" transform="translate(-7000.81 -1436.36)"/></svg>